<mxfile host="Electron" agent="Mozilla/5.0 (Windows NT 10.0; Win64; x64) AppleWebKit/537.36 (KHTML, like Gecko) draw.io/24.7.5 Chrome/126.0.6478.183 Electron/31.3.0 Safari/537.36" version="24.7.5">
  <diagram name="第 1 页" id="AWByc17LWTGRv1_pv4K3">
    <mxGraphModel dx="1098" dy="860" grid="1" gridSize="10" guides="1" tooltips="1" connect="1" arrows="1" fold="1" page="1" pageScale="1" pageWidth="827" pageHeight="1169" math="0" shadow="0">
      <root>
        <mxCell id="0" />
        <mxCell id="1" parent="0" />
        <mxCell id="OI2pIaHS-UBahuaH_scw-104" value="" style="rounded=0;whiteSpace=wrap;html=1;" vertex="1" parent="1">
          <mxGeometry x="165" y="130" width="345" height="540" as="geometry" />
        </mxCell>
        <mxCell id="OI2pIaHS-UBahuaH_scw-2" value="用户" style="shape=umlActor;verticalLabelPosition=bottom;verticalAlign=top;html=1;outlineConnect=0;" vertex="1" parent="1">
          <mxGeometry x="60" y="360" width="30" height="60" as="geometry" />
        </mxCell>
        <mxCell id="OI2pIaHS-UBahuaH_scw-3" value="系统管理员" style="shape=umlActor;verticalLabelPosition=bottom;verticalAlign=top;html=1;outlineConnect=0;" vertex="1" parent="1">
          <mxGeometry x="580" y="350" width="30" height="60" as="geometry" />
        </mxCell>
        <mxCell id="OI2pIaHS-UBahuaH_scw-4" value="&lt;span style=&quot;font-size: 14px;&quot;&gt;宠物领养&lt;/span&gt;" style="text;strokeColor=none;fillColor=none;html=1;fontSize=24;fontStyle=1;verticalAlign=middle;align=center;" vertex="1" parent="1">
          <mxGeometry x="290" y="130" width="100" height="40" as="geometry" />
        </mxCell>
        <mxCell id="OI2pIaHS-UBahuaH_scw-7" value="查看宠物信息" style="ellipse;whiteSpace=wrap;html=1;" vertex="1" parent="1">
          <mxGeometry x="180" y="300" width="90" height="40" as="geometry" />
        </mxCell>
        <mxCell id="OI2pIaHS-UBahuaH_scw-8" value="申请领养宠物" style="ellipse;whiteSpace=wrap;html=1;" vertex="1" parent="1">
          <mxGeometry x="190" y="460" width="90" height="40" as="geometry" />
        </mxCell>
        <mxCell id="OI2pIaHS-UBahuaH_scw-9" value="查看领养申请帮助" style="ellipse;whiteSpace=wrap;html=1;" vertex="1" parent="1">
          <mxGeometry x="390" y="430" width="90" height="40" as="geometry" />
        </mxCell>
        <mxCell id="OI2pIaHS-UBahuaH_scw-10" value="同意领养要求" style="ellipse;whiteSpace=wrap;html=1;" vertex="1" parent="1">
          <mxGeometry x="390" y="490" width="90" height="40" as="geometry" />
        </mxCell>
        <mxCell id="OI2pIaHS-UBahuaH_scw-17" value="查看宠物特殊需求说明" style="ellipse;whiteSpace=wrap;html=1;" vertex="1" parent="1">
          <mxGeometry x="394" y="350" width="90" height="40" as="geometry" />
        </mxCell>
        <mxCell id="OI2pIaHS-UBahuaH_scw-18" value="查看宠物健康状况" style="ellipse;whiteSpace=wrap;html=1;" vertex="1" parent="1">
          <mxGeometry x="394" y="300" width="90" height="40" as="geometry" />
        </mxCell>
        <mxCell id="OI2pIaHS-UBahuaH_scw-19" value="" style="endArrow=block;dashed=1;endFill=0;endSize=12;html=1;rounded=0;entryX=0;entryY=0.5;entryDx=0;entryDy=0;exitX=1;exitY=0.5;exitDx=0;exitDy=0;" edge="1" parent="1" target="OI2pIaHS-UBahuaH_scw-18" source="OI2pIaHS-UBahuaH_scw-7">
          <mxGeometry width="160" relative="1" as="geometry">
            <mxPoint x="280" y="348.95" as="sourcePoint" />
            <mxPoint x="440" y="348.95" as="targetPoint" />
          </mxGeometry>
        </mxCell>
        <mxCell id="OI2pIaHS-UBahuaH_scw-20" value="《include》" style="edgeLabel;html=1;align=center;verticalAlign=middle;resizable=0;points=[];" vertex="1" connectable="0" parent="OI2pIaHS-UBahuaH_scw-19">
          <mxGeometry x="-0.0826" relative="1" as="geometry">
            <mxPoint as="offset" />
          </mxGeometry>
        </mxCell>
        <mxCell id="OI2pIaHS-UBahuaH_scw-21" value="" style="endArrow=block;dashed=1;endFill=0;endSize=12;html=1;rounded=0;entryX=0;entryY=0.5;entryDx=0;entryDy=0;exitX=1;exitY=0.5;exitDx=0;exitDy=0;" edge="1" parent="1" source="OI2pIaHS-UBahuaH_scw-7" target="OI2pIaHS-UBahuaH_scw-17">
          <mxGeometry width="160" relative="1" as="geometry">
            <mxPoint x="290" y="358.95" as="sourcePoint" />
            <mxPoint x="400" y="320" as="targetPoint" />
          </mxGeometry>
        </mxCell>
        <mxCell id="OI2pIaHS-UBahuaH_scw-22" value="《include》" style="edgeLabel;html=1;align=center;verticalAlign=middle;resizable=0;points=[];" vertex="1" connectable="0" parent="OI2pIaHS-UBahuaH_scw-21">
          <mxGeometry x="-0.0826" relative="1" as="geometry">
            <mxPoint as="offset" />
          </mxGeometry>
        </mxCell>
        <mxCell id="OI2pIaHS-UBahuaH_scw-23" value="" style="endArrow=block;dashed=1;endFill=0;endSize=12;html=1;rounded=0;entryX=0;entryY=0.5;entryDx=0;entryDy=0;exitX=1;exitY=0.5;exitDx=0;exitDy=0;" edge="1" parent="1" source="OI2pIaHS-UBahuaH_scw-8" target="OI2pIaHS-UBahuaH_scw-9">
          <mxGeometry width="160" relative="1" as="geometry">
            <mxPoint x="281.25" y="478.95" as="sourcePoint" />
            <mxPoint x="391.25" y="440" as="targetPoint" />
          </mxGeometry>
        </mxCell>
        <mxCell id="OI2pIaHS-UBahuaH_scw-24" value="《include》" style="edgeLabel;html=1;align=center;verticalAlign=middle;resizable=0;points=[];" vertex="1" connectable="0" parent="OI2pIaHS-UBahuaH_scw-23">
          <mxGeometry x="-0.0826" relative="1" as="geometry">
            <mxPoint as="offset" />
          </mxGeometry>
        </mxCell>
        <mxCell id="OI2pIaHS-UBahuaH_scw-25" value="" style="endArrow=block;dashed=1;endFill=0;endSize=12;html=1;rounded=0;entryX=0;entryY=0.5;entryDx=0;entryDy=0;exitX=1;exitY=0.5;exitDx=0;exitDy=0;" edge="1" parent="1" source="OI2pIaHS-UBahuaH_scw-8" target="OI2pIaHS-UBahuaH_scw-10">
          <mxGeometry width="160" relative="1" as="geometry">
            <mxPoint x="277.5" y="480" as="sourcePoint" />
            <mxPoint x="387.5" y="520" as="targetPoint" />
          </mxGeometry>
        </mxCell>
        <mxCell id="OI2pIaHS-UBahuaH_scw-26" value="《include》" style="edgeLabel;html=1;align=center;verticalAlign=middle;resizable=0;points=[];" vertex="1" connectable="0" parent="OI2pIaHS-UBahuaH_scw-25">
          <mxGeometry x="-0.0826" relative="1" as="geometry">
            <mxPoint as="offset" />
          </mxGeometry>
        </mxCell>
        <mxCell id="OI2pIaHS-UBahuaH_scw-71" value="查看基本信息" style="ellipse;whiteSpace=wrap;html=1;" vertex="1" parent="1">
          <mxGeometry x="394" y="250" width="90" height="40" as="geometry" />
        </mxCell>
        <mxCell id="OI2pIaHS-UBahuaH_scw-72" value="" style="endArrow=block;dashed=1;endFill=0;endSize=12;html=1;rounded=0;entryX=0;entryY=0.5;entryDx=0;entryDy=0;exitX=1;exitY=0.5;exitDx=0;exitDy=0;" edge="1" parent="1" source="OI2pIaHS-UBahuaH_scw-7" target="OI2pIaHS-UBahuaH_scw-71">
          <mxGeometry width="160" relative="1" as="geometry">
            <mxPoint x="270.000000000001" y="340" as="sourcePoint" />
            <mxPoint x="434" y="288.95" as="targetPoint" />
          </mxGeometry>
        </mxCell>
        <mxCell id="OI2pIaHS-UBahuaH_scw-73" value="《include》" style="edgeLabel;html=1;align=center;verticalAlign=middle;resizable=0;points=[];" vertex="1" connectable="0" parent="OI2pIaHS-UBahuaH_scw-72">
          <mxGeometry x="-0.0826" relative="1" as="geometry">
            <mxPoint as="offset" />
          </mxGeometry>
        </mxCell>
        <mxCell id="OI2pIaHS-UBahuaH_scw-79" value="" style="endArrow=none;html=1;rounded=0;entryX=0;entryY=0.5;entryDx=0;entryDy=0;" edge="1" parent="1" target="OI2pIaHS-UBahuaH_scw-7">
          <mxGeometry width="50" height="50" relative="1" as="geometry">
            <mxPoint x="90" y="380" as="sourcePoint" />
            <mxPoint x="221" y="150" as="targetPoint" />
          </mxGeometry>
        </mxCell>
        <mxCell id="OI2pIaHS-UBahuaH_scw-80" value="" style="endArrow=none;html=1;rounded=0;entryX=0;entryY=0.5;entryDx=0;entryDy=0;exitX=1;exitY=0.3333333333333333;exitDx=0;exitDy=0;exitPerimeter=0;" edge="1" parent="1" source="OI2pIaHS-UBahuaH_scw-2" target="OI2pIaHS-UBahuaH_scw-8">
          <mxGeometry width="50" height="50" relative="1" as="geometry">
            <mxPoint x="100" y="390" as="sourcePoint" />
            <mxPoint x="220" y="220" as="targetPoint" />
          </mxGeometry>
        </mxCell>
        <mxCell id="OI2pIaHS-UBahuaH_scw-91" value="发布宠物信息" style="ellipse;whiteSpace=wrap;html=1;" vertex="1" parent="1">
          <mxGeometry x="190" y="580" width="90" height="40" as="geometry" />
        </mxCell>
        <mxCell id="OI2pIaHS-UBahuaH_scw-92" value="查看已发布的宠物" style="ellipse;whiteSpace=wrap;html=1;" vertex="1" parent="1">
          <mxGeometry x="394" y="580" width="90" height="40" as="geometry" />
        </mxCell>
        <mxCell id="OI2pIaHS-UBahuaH_scw-93" value="查看宠物领养需求" style="ellipse;whiteSpace=wrap;html=1;" vertex="1" parent="1">
          <mxGeometry x="180" y="190" width="90" height="40" as="geometry" />
        </mxCell>
        <mxCell id="OI2pIaHS-UBahuaH_scw-94" value="" style="endArrow=none;html=1;rounded=0;entryX=0;entryY=0.5;entryDx=0;entryDy=0;exitX=1;exitY=0.3333333333333333;exitDx=0;exitDy=0;exitPerimeter=0;" edge="1" parent="1" source="OI2pIaHS-UBahuaH_scw-2" target="OI2pIaHS-UBahuaH_scw-93">
          <mxGeometry width="50" height="50" relative="1" as="geometry">
            <mxPoint x="100" y="390" as="sourcePoint" />
            <mxPoint x="219" y="190" as="targetPoint" />
          </mxGeometry>
        </mxCell>
        <mxCell id="OI2pIaHS-UBahuaH_scw-95" value="" style="endArrow=none;html=1;rounded=0;entryX=0;entryY=0.5;entryDx=0;entryDy=0;" edge="1" parent="1" target="OI2pIaHS-UBahuaH_scw-91">
          <mxGeometry width="50" height="50" relative="1" as="geometry">
            <mxPoint x="90" y="380" as="sourcePoint" />
            <mxPoint x="220" y="350" as="targetPoint" />
          </mxGeometry>
        </mxCell>
        <mxCell id="OI2pIaHS-UBahuaH_scw-96" value="" style="endArrow=block;dashed=1;endFill=0;endSize=12;html=1;rounded=0;entryX=1;entryY=0.5;entryDx=0;entryDy=0;exitX=0;exitY=0.5;exitDx=0;exitDy=0;" edge="1" parent="1" source="OI2pIaHS-UBahuaH_scw-92" target="OI2pIaHS-UBahuaH_scw-91">
          <mxGeometry width="160" relative="1" as="geometry">
            <mxPoint x="290" y="490" as="sourcePoint" />
            <mxPoint x="400" y="520" as="targetPoint" />
          </mxGeometry>
        </mxCell>
        <mxCell id="OI2pIaHS-UBahuaH_scw-97" value="《extend》" style="edgeLabel;html=1;align=center;verticalAlign=middle;resizable=0;points=[];" vertex="1" connectable="0" parent="OI2pIaHS-UBahuaH_scw-96">
          <mxGeometry x="-0.0826" relative="1" as="geometry">
            <mxPoint as="offset" />
          </mxGeometry>
        </mxCell>
        <mxCell id="OI2pIaHS-UBahuaH_scw-101" value="" style="endArrow=none;html=1;rounded=0;entryX=1;entryY=0.5;entryDx=0;entryDy=0;exitX=0;exitY=0.3333333333333333;exitDx=0;exitDy=0;exitPerimeter=0;" edge="1" parent="1" source="OI2pIaHS-UBahuaH_scw-3" target="OI2pIaHS-UBahuaH_scw-93">
          <mxGeometry width="50" height="50" relative="1" as="geometry">
            <mxPoint x="100" y="390" as="sourcePoint" />
            <mxPoint x="190" y="220" as="targetPoint" />
            <Array as="points">
              <mxPoint x="520" y="230" />
            </Array>
          </mxGeometry>
        </mxCell>
        <mxCell id="OI2pIaHS-UBahuaH_scw-103" value="" style="endArrow=none;html=1;rounded=0;entryX=1;entryY=0.5;entryDx=0;entryDy=0;" edge="1" parent="1" target="OI2pIaHS-UBahuaH_scw-7">
          <mxGeometry width="50" height="50" relative="1" as="geometry">
            <mxPoint x="580.5517157192888" y="370" as="sourcePoint" />
            <mxPoint x="190" y="330" as="targetPoint" />
            <Array as="points">
              <mxPoint x="360" y="420" />
            </Array>
          </mxGeometry>
        </mxCell>
      </root>
    </mxGraphModel>
  </diagram>
</mxfile>
